<?xml version="1.0" encoding="UTF-8"?>
<svg id="Layer_1" xmlns="http://www.w3.org/2000/svg" version="1.1" viewBox="0 0 100 106">
  <!-- Generator: Adobe Illustrator 29.3.1, SVG Export Plug-In . SVG Version: 2.1.0 Build 151)  -->
  <defs>
    <style>
      .st0 {
        fill: #fff;
      }
    </style>
  </defs>
  <path class="st0" d="M87.6,0H12.5C5.6,0,0,5.6,0,12.5v81c0,6.9,5.6,12.5,12.5,12.5h75c6.9,0,12.5-5.6,12.5-12.5V12.5c0-6.9-5.6-12.5-12.5-12.5h0ZM98.9,13.2v74.4c0,6.2-5.1,11.3-11.3,11.3H12.5c-6.2,0-11.3-5.1-11.3-11.3V12.5C1.2,6.2,6.2,1.2,12.5,1.2h75c6.2,0,11.3,5.1,11.3,11.3v.6h0ZM20.2,67.9h40.8l18.8-35.8h-40.8l-18.8,35.8Z"/>
</svg>