<?xml version="1.0" encoding="UTF-8"?>
<svg id="Layer_1" xmlns="http://www.w3.org/2000/svg" version="1.1" viewBox="0 0 170 180">
  <!-- Generator: Adobe Illustrator 29.3.1, SVG Export Plug-In . SVG Version: 2.1.0 Build 151)  -->
  <defs>
    <style>
      .st0 {
        fill: #fff;
      }
    </style>
  </defs>
  <path class="st0" d="M148.8,0H21.2C9.5,0,0,9.5,0,21.2v137.5c0,11.7,9.5,21.2,21.2,21.2h127.5c11.7,0,21.2-9.5,21.2-21.2V21.2c0-11.7-9.5-21.2-21.2-21.2ZM168,22.4v126.3c0,10.6-8.6,19.2-19.2,19.2H21.2c-10.6,0-19.2-8.6-19.2-19.2V21.2C2,10.6,10.6,2,21.2,2h127.5c10.6,0,19.2,8.6,19.2,19.2v1.1ZM34.4,115.3h69.3l31.9-60.7h-69.3l-31.9,60.7Z"/>
</svg>