<?xml version="1.0" encoding="UTF-8"?>
<svg id="Layer_1" xmlns="http://www.w3.org/2000/svg" version="1.1" viewBox="0 0 170 180">
  <!-- Generator: Adobe Illustrator 29.3.1, SVG Export Plug-In . SVG Version: 2.1.0 Build 151)  -->
  <defs>
    <style>
      .st0 {
        fill: #fff;
      }
    </style>
  </defs>
  <path class="st0" d="M85.9,99.4c-.3.2-.6.4-.9.4s-.6,0-.9-.4l-13.6-12.7-31.6,29.6h92.2l-31.6-29.6s-13.6,12.7-13.6,12.7ZM85,96.7l12.6-11.7,33.5-31.3H38.9l33.6,31.4,12.5,11.7h0ZM36.9,55.3v59.3l31.7-29.6-31.7-29.6h0ZM133.1,114.6v-59.3l-31.7,29.6,31.7,29.6h0ZM148.7,0H21.3C9.5,0,0,9.5,0,21.2v137.5c0,11.8,9.5,21.3,21.3,21.3h127.5c11.7,0,21.2-9.5,21.2-21.2V21.2c0-11.7-9.5-21.2-21.2-21.2h-.1ZM168,22.4v126.3c0,10.6-8.6,19.2-19.2,19.2H21.3c-10.6,0-19.2-8.6-19.2-19.2V21.2C2,10.6,10.6,2,21.3,2h127.5c10.6,0,19.2,8.6,19.2,19.2v1.1h0Z"/>
</svg>