<?xml version="1.0" encoding="UTF-8"?>
<svg id="Layer_1" xmlns="http://www.w3.org/2000/svg" version="1.1" viewBox="0 0 100 100">
  <!-- Generator: Adobe Illustrator 29.3.1, SVG Export Plug-In . SVG Version: 2.1.0 Build 151)  -->
  <defs>
    <style>
      .st0 {
        fill: #fff;
      }
    </style>
  </defs>
  <path class="st0" d="M50.5,58.5c-.2,0-.4.2-.5.2s-.4,0-.5-.2l-8-7.5-18.6,17.4h54.2l-18.6-17.4-8,7.5ZM50,56.9l7.4-6.9,19.7-18.4H22.9l19.8,18.5,7.4,6.9h0ZM21.7,32.6v34.9l18.6-17.4-18.6-17.4h0ZM78.3,67.5v-34.9l-18.6,17.4,18.6,17.4h0Z"/>
  <path class="st0" d="M100,100H0V0h100v100ZM.7,99.3h98.5V.7H.7v98.5Z"/>
</svg>