<?xml version="1.0" encoding="UTF-8"?>
<svg id="Layer_1" xmlns="http://www.w3.org/2000/svg" version="1.1" viewBox="0 0 100 106">
  <!-- Generator: Adobe Illustrator 29.3.1, SVG Export Plug-In . SVG Version: 2.1.0 Build 151)  -->
  <defs>
    <style>
      .st0 {
        fill: #fff;
      }
    </style>
  </defs>
  <path class="st0" d="M50.5,58.5c-.2.1-.4.2-.5.2s-.4,0-.5-.2l-8-7.5-18.6,17.4h54.2l-18.6-17.4s-8,7.5-8,7.5ZM50,56.9l7.4-6.9,19.7-18.4H22.9l19.8,18.5,7.4,6.9h0ZM21.7,32.6v34.9l18.6-17.4-18.6-17.4h0ZM78.3,67.5v-34.9l-18.6,17.4,18.6,17.4h0ZM87.5,0H12.5C5.6,0,0,5.6,0,12.5v81c0,6.9,5.6,12.5,12.5,12.5h75c6.9,0,12.5-5.6,12.5-12.5V12.5c0-6.9-5.6-12.5-12.5-12.5h0ZM98.8,13.2v74.4c0,6.2-5.1,11.3-11.3,11.3H12.5c-6.2,0-11.3-5.1-11.3-11.3V12.5C1.2,6.2,6.2,1.2,12.5,1.2h75c6.2,0,11.3,5.1,11.3,11.3v.6h0Z"/>
</svg>