<?xml version="1.0" encoding="UTF-8"?>
<svg id="Layer_1" xmlns="http://www.w3.org/2000/svg" version="1.1" viewBox="0 0 100 106">
  <!-- Generator: Adobe Illustrator 29.3.1, SVG Export Plug-In . SVG Version: 2.1.0 Build 151)  -->
  <defs>
    <style>
      .st0 {
        fill: #fff;
      }
    </style>
  </defs>
  <path class="st0" d="M50.5,58.5c-.2,0-.4.2-.5.2s-.4,0-.5-.2l-8-7.5-18.6,17.4h54.2l-18.6-17.4-8,7.5ZM50,56.9l7.4-6.9,19.7-18.4H22.9l19.8,18.5,7.4,6.9h0ZM21.7,32.6v34.9l18.6-17.4-18.6-17.4h0ZM78.3,67.5v-34.9l-18.6,17.4,18.6,17.4h0Z"/>
  <path class="st0" d="M87.5.2H12.5C5.7.2.2,5.7.2,12.5v81c0,6.8,5.5,12.3,12.3,12.3h75c6.8,0,12.3-5.5,12.3-12.3V12.5c0-6.8-5.5-12.3-12.3-12.3ZM99,87.6c0,6.3-5.2,11.5-11.5,11.5H12.5c-6.3,0-11.5-5.2-11.5-11.5V12.5C1,6.1,6.1,1,12.5,1h75c6.3,0,11.5,5.2,11.5,11.5v75.1Z"/>
</svg>