<?xml version="1.0" encoding="UTF-8"?>
<svg id="Layer_1" xmlns="http://www.w3.org/2000/svg" version="1.1" viewBox="0 0 32 32">
  <!-- Generator: Adobe Illustrator 29.3.1, SVG Export Plug-In . SVG Version: 2.1.0 Build 151)  -->
  <path d="M17.5,12.4h-.3v-1h-.3v-1h-.3v-1h-.3v-1h-.3v-1h-.3v-1h-.3v-1h-.3v-1h-.3v-1h-.3v-1h-.3v-1h-.3V0h-2.7v32h3.7V12.4h.3v1h.3v1h.3v1h.3v1h.3v1h.3v1h.3v1h.3v1h.3v11.4h3.7V0h-3.7v12.4ZM28.3,12.4h-.3v-1h-.3v-1h-.3v-1h-.3v-1h-.3v-1h-.3v-1h-.3v-1h-.3v-1h-.3v-1h-.3v-1h-.3v-1h-.3V0h-2.7v32h3.7V12.4h.3v1h.3v1h.3v1h.3v1h.3v1h.3v1h.3v1h.3v1h.3v11.4h3.7V0h-3.7v12.4h0ZM0,7.2h3.3v17.5H0v7.2h10.3v-7.2h-3.3V7.2h3.3V0H0v7.2Z"/>
</svg>