<?xml version="1.0" encoding="UTF-8"?>
<svg id="Layer_1" xmlns="http://www.w3.org/2000/svg" version="1.1" viewBox="0 0 600 600">
  <!-- Generator: Adobe Illustrator 29.3.1, SVG Export Plug-In . SVG Version: 2.1.0 Build 151)  -->
  <path d="M97.3,232.3h-1.9v-19.3h-1.9v-19.3h-1.9v-19.3h-1.9v-19.3h-1.9v-19.3h-1.9v-19.3h-1.9v-19.3h-1.8v-19.3h-1.9v-19.3h-1.9v-19.4h-1.9v-19.4h-1.9V0h-14.8v599.9h20.4V232.3h1.8v19.3h1.9v19.3h1.9v19.3h1.9v19.3h1.9v19.3h1.9v19.3h1.9v19.3h1.9v19.3h1.9v212.9h20.4V0h-20.4v232.3ZM157.6,232.3h-1.9v-19.3h-1.9v-19.3h-1.9v-19.3h-1.9v-19.3h-1.9v-19.3h-1.9v-19.3h-1.9v-19.3h-1.9v-19.3h-1.9v-19.3h-1.9v-19.4h-1.9v-19.4h-1.9V0h-14.8v599.9h20.4V232.3h1.8v19.3h1.9v19.3h1.9v19.3h1.9v19.3h1.9v19.3h1.9v19.3h1.9v19.3h1.9v19.3h1.9v212.9h20.4V0h-20.4v232.3h0ZM180.9,600h57.4v-135.5h-37v-96.8h24.1v-135.5h-24.1v-96.8h37V0h-57.4v599.9h0ZM261.5,0h-20.4v599.9h57.4v-135.5h-37V0ZM301.5,600h57.4v-135.5h-37v-96.8h24.1v-135.5h-24.1v-96.8h37V0h-57.4v599.9ZM374.7,19.4h-1.9v19.3h-1.9v19.3h-1.9v19.3h-1.9v19.3h-1.9v19.3h-1.9v19.3h-1.9v329h1.9v19.3h1.9v19.3h1.9v19.3h1.9v19.3h1.9v19.3h1.9v19.3h1.9v19.3h44.4v-135.5h-37V135.6h37V0h-44.4v19.3ZM422.1,135.6h18.5v464.4h20.4V135.6h18.5V0h-57.4v135.5ZM0,135.6h18.5v329H0v135.5h57.4v-135.5h-18.5V135.6h18.5V0H0v135.5ZM537.9,116.2h-1.9v-19.3h-1.9v-19.3h-1.9v-19.3h-1.9v-19.4h-1.9v-19.4h-1.8V0h-44.4v599.9h20.4v-154.8h9.3v19.3h1.9v19.3h1.9v19.3h1.9v19.3h1.9v19.3h1.9v19.3h1.9v19.3h1.9v19.3h14.8v-135.5h-1.9v-19.3h-1.9v-19.3h-1.9v-19.3h-1.9v-38.7h1.9v-19.3h1.9v-19.3h1.9v-19.3h1.9v-174.1h-1.9v-19.4h0ZM519.3,309.7h-16.7v-174.2h16.7v174.2ZM598.1,135.6v-19.3h-1.9v-19.3h-1.9v-19.3h-1.9v-19.3h-1.9v-19.4h-1.9v-19.4h-1.9V0h-31.5v19.3h-1.9v19.3h-1.9v19.3h-1.9v19.3h-1.9v19.3h-1.9v19.3h-1.9v19.3h-1.9v329h1.9v19.3h1.9v19.3h1.9v19.3h1.9v19.3h1.9v19.3h1.9v19.3h1.9v19.3h31.5v-19.3h1.9v-19.3h1.9v-19.3h1.9v-19.3h1.9v-19.3h1.9v-19.3h1.9v-19.3h1.9V135.6h-1.9ZM579.6,464.5h-16.7V135.6h16.7v329Z"/>
</svg>