<?xml version="1.0" encoding="UTF-8"?>
<svg id="Layer_1" xmlns="http://www.w3.org/2000/svg" version="1.1" viewBox="0 0 500 250">
  <!-- Generator: Adobe Illustrator 29.3.1, SVG Export Plug-In . SVG Version: 2.1.0 Build 151)  -->
  <defs>
    <style>
      .st0 {
        fill: #fff;
      }
    </style>
  </defs>
  <path class="st0" d="M79.7,96.8h-1.4v-8.1h-1.4v-8.1h-1.4v-8.1h-1.4v-8.1h-1.4v-8.1h-1.4v-8.1h-1.4v-8.1h-1.4v-8.1h-1.4v-8.1h-1.4v-8.1h-1.4v-8.1h-1.4V0h-11.5v250h15.8V96.8h1.4v8.1h1.4v8.1h1.4v8.1h1.4v8.1h1.4v8.1h1.4v8.1h1.4v8.1h1.4v8.1h1.5v88.7h15.8V0h-15.8v96.8ZM127.2,96.8h-1.4v-8.1h-1.4v-8.1h-1.4v-8.1h-1.4v-8.1h-1.4v-8.1h-1.4v-8.1h-1.4v-8.1h-1.4v-8.1h-1.4v-8.1h-1.4v-8.1h-1.4v-8.1h-1.4V0h-11.5v250h15.8V96.8h1.4v8.1h1.4v8.1h1.4v8.1h1.4v8.1h1.4v8.1h1.4v8.1h1.4v8.1h1.4v8.1h1.5v88.7h15.8V0h-15.8v96.8h0ZM149.5,250h44.4v-56.4h-28.7v-40.3h18.6v-56.5h-18.6v-40.3h28.7V0h-44.4v250h0ZM216.3,0h-15.8v250h44.4v-56.4h-28.7V0ZM251.5,250h44.4v-56.4h-28.7v-40.3h18.6v-56.5h-18.6v-40.3h28.7V0h-44.4v250ZM312.6,8.1h-1.4v8.1h-1.4v8.1h-1.4v8.1h-1.4v8.1h-1.4v8.1h-1.4v8.1h-1.4v137.1h1.4v8.1h1.4v8.1h1.4v8.1h1.4v8.1h1.4v8.1h1.4v8.1h1.4v8.1h34.4v-56.4h-28.7V56.5h28.7V0h-34.4v8.1ZM353.6,56.5h14.3v193.5h15.8V56.5h14.3V0h-44.4v56.4ZM0,56.5h14.3v137.1H0v56.4h44.4v-56.4h-14.3V56.5h14.3V0H0v56.4ZM447.6,48.4h-1.4v-8.1h-1.4v-8.1h-1.4v-8.1h-1.4v-8.1h-1.4v-8.1h-1.4V0h-34.4v250h15.8v-64.5h7.2v8.1h1.4v8.1h1.4v8.1h1.4v8.1h1.4v8.1h1.4v8.1h1.4v8.1h1.4v8.1h11.5v-56.4h-1.4v-8.1h-1.4v-8.1h-1.4v-8.1h-1.4v-16.1h1.4v-8.1h1.4v-8.1h1.4v-8.1h1.4V56.5h-1.4v-8.1h0ZM433.2,129h-12.9V56.5h12.9v72.6ZM498.6,56.5v-8.1h-1.4v-8.1h-1.4v-8.1h-1.4v-8.1h-1.4v-8.1h-1.4v-8.1h-1.4V0h-24.4v8.1h-1.4v8.1h-1.4v8.1h-1.4v8.1h-1.4v8.1h-1.4v8.1h-1.4v8.1h-1.4v137.1h1.4v8.1h1.4v8.1h1.4v8.1h1.4v8.1h1.4v8.1h1.4v8.1h1.4v8.1h24.4v-8.1h1.4v-8.1h1.4v-8.1h1.4v-8.1h1.4v-8.1h1.4v-8.1h1.4v-8.1h1.4V56.5h-1.4ZM484.2,193.6h-12.9V56.5h12.9v137.1Z"/>
</svg>