<?xml version="1.0" encoding="UTF-8"?>
<svg id="Layer_1" xmlns="http://www.w3.org/2000/svg" version="1.1" viewBox="0 0 100 100">
  <!-- Generator: Adobe Illustrator 29.3.1, SVG Export Plug-In . SVG Version: 2.1.0 Build 151)  -->
  <defs>
    <style>
      .st0 {
        fill: #fff;
      }
    </style>
  </defs>
  <path class="st0" d="M31.1,65c-.6-.8-1.8-1.2-3.3-1.2h-4.5c-.3,0-.6.2-.6.5l-1.8,12c0,.2.1.5.4.5h2.2c.3,0,.6-.2.6-.5l.5-3.2c0-.3.3-.5.6-.5h1.4c3,0,4.7-1.5,5.2-4.5.2-1.3,0-2.3-.6-3h-.1ZM28.4,68c-.2,1.7-1.5,1.7-2.7,1.7h-.7l.5-3.1c0-.2.2-.4.4-.4h.3c.8,0,1.6,0,2,.5.2.3.3.7.2,1.3h0ZM63.5,65c-.6-.8-1.8-1.2-3.3-1.2h-4.5c-.3,0-.6.2-.6.5l-1.8,12c0,.2,0,.5.4.5h2.4c.2,0,.4-.2.4-.4l.5-3.4c0-.3.3-.5.6-.5h1.4c3,0,4.7-1.5,5.2-4.5.2-1.3,0-2.3-.6-3h-.1ZM60.7,68c-.2,1.7-1.5,1.7-2.7,1.7h-.7l.5-3.1c0-.2.2-.4.4-.4h.3c.8,0,1.6,0,2,.5.2.3.3.7.2,1.3h0ZM36.4,54.8h7.2l-.5,3.2c0,.5.4,1.1.9,1.1h6.1c.7,0,1.4-.5,1.5-1.3v-.3l1.2-7.5v-.4c.2-.7.8-1.3,1.5-1.3h.9c5.9,0,10.5-2.5,11.9-9.6.6-3,.3-5.5-1.2-7.2-.5-.5-1-.9-1.6-1.4v.7c-1.5,8.2-6.8,11-13.6,11h-3.4c-.8,0-1.5.6-1.6,1.5v-.4l2-12.7c0-.5.4-.9.8-1.1.2-.1.4-.2.6-.2h9.2c1.1,0,2.1,0,3,.2.3,0,.5.1.8.2.2,0,.5.1.7.2,0,0,.2,0,.4.1.5.2.9.4,1.3.5.5-3,0-5.1-1.6-6.9-1.8-2.1-4.9-2.9-8.9-2.9h-12.3c-.5.2-.9.7-1.1,1.4l-4.9,31.9v.2c0,.5.5.9,1,.9h-.3ZM52.9,68h-2.2c-.2,0-.4,0-.5.3l-3,4.6-1.3-4.4c0-.3-.4-.5-.6-.5h-2.1c-.2,0-.5.2-.4.5l2.4,7.3-2.2,3.3c-.2.2,0,.6.3.6h2.2c.2,0,.4,0,.5-.3l7.2-10.8c.2-.2,0-.6-.3-.6h0ZM73.8,68h-2.2c-.2,0-.4,0-.4.4v.6l-.3-.2c-.5-.7-1.5-.9-2.6-.9-2.4,0-4.5,1.9-4.8,4.5-.2,1.3,0,2.6.8,3.4.6.8,1.6,1.1,2.8,1.1,1.9,0,3-1.3,3-1.3v.6c0,.2,0,.5.2.5h1.9c.3,0,.6-.2.6-.5l1.2-7.7c0-.2,0-.5-.4-.5h.2ZM70.7,72.4c-.2,1.3-1.2,2.1-2.5,2.1s-1.1-.2-1.5-.6c-.3-.4-.5-.9-.4-1.6.2-1.3,1.2-2.2,2.4-2.2s1.1.2,1.5.6.5.9.4,1.6h0ZM41.4,68h-2.2c-.2,0-.4,0-.4.4v.6l-.3-.2c-.5-.7-1.5-.9-2.6-.9-2.4,0-4.5,1.9-4.8,4.5-.2,1.3,0,2.6.8,3.4.6.8,1.6,1.1,2.8,1.1,1.9,0,3-1.3,3-1.3v.6c0,.2,0,.5.2.5h1.9c.3,0,.6-.2.6-.5l1.2-7.7c0-.2,0-.5-.4-.5h.2ZM38.4,72.4c-.2,1.3-1.2,2.1-2.5,2.1s-1.1-.2-1.5-.6c-.3-.4-.5-.9-.4-1.6.2-1.3,1.2-2.2,2.4-2.2s1.1.2,1.5.6.5.9.4,1.6h0ZM78.8,63.8h-2.1c-.2,0-.4,0-.4.4l-1.9,12.2c0,.2,0,.5.4.5h1.9c.3,0,.6-.2.6-.5l1.8-12c0-.2,0-.5-.4-.5h0Z"/>
  <path class="st0" d="M100,100H0V0h100v100ZM.7,99.3h98.5V.7H.7v98.5Z"/>
</svg>