<?xml version="1.0" encoding="UTF-8"?>
<svg id="Layer_1" xmlns="http://www.w3.org/2000/svg" version="1.1" viewBox="0 0 170 180">
  <!-- Generator: Adobe Illustrator 29.3.1, SVG Export Plug-In . SVG Version: 2.1.0 Build 151)  -->
  <defs>
    <style>
      .st0 {
        fill: #fff;
      }
    </style>
  </defs>
  <path class="st0" d="M148.7,0H21.3C9.5,0,0,9.5,0,21.2v137.5C0,170.5,9.5,180,21.3,180h127.5c11.7,0,21.2-9.5,21.2-21.2V21.2c0-11.7-9.5-21.2-21.2-21.2ZM168,22.4v126.3c0,10.6-8.6,19.2-19.2,19.2H21.3c-10.6,0-19.2-8.6-19.2-19.2V21.2C2,10.6,10.6,2,21.3,2h127.5c10.6,0,19.2,8.6,19.2,19.2v1.1ZM52.9,110.3c-1.1-1.3-3-2-5.6-2h-7.7c-.5,0-1,.4-1.1.9l-3.1,20.4c0,.4.2.8.6.8h3.7c.5,0,1-.4,1.1-.9l.8-5.5c0-.5.5-.9,1.1-.9h2.4c5.1,0,8-2.5,8.8-7.6.3-2.2,0-3.9-1-5.1ZM48.2,115.7c-.4,2.9-2.5,2.9-4.6,2.9h-1.2l.8-5.3c0-.3.3-.6.6-.6h.5c1.4,0,2.7,0,3.4.8.4.5.5,1.2.4,2.2ZM108,110.3c-1.1-1.3-3-2-5.6-2h-7.7c-.5,0-1,.4-1.1.9l-3.1,20.4c0,.4.2.8.6.8h4c.4,0,.7-.3.7-.7l.9-5.8c0-.5.5-.9,1.1-.9h2.4c5.1,0,8-2.5,8.8-7.6.3-2.2,0-3.9-1-5.1ZM103.2,115.7c-.4,2.9-2.5,2.9-4.6,2.9h-1.2l.8-5.3c0-.3.3-.6.6-.6h.5c1.4,0,2.7,0,3.4.8.4.5.5,1.2.4,2.2ZM61.9,93h12.3l-.8,5.5c-.1.9.6,1.8,1.5,1.8h10.4c1.2,0,2.3-.9,2.5-2.2v-.5c.1,0,2.1-12.7,2.1-12.7v-.7c.3-1.2,1.4-2.2,2.6-2.2h1.5c10,0,17.9-4.2,20.2-16.3,1-5.1.5-9.3-2.1-12.3-.8-.9-1.7-1.6-2.8-2.3,0,.4-.1.8-.2,1.2-2.6,13.9-11.6,18.7-23.1,18.7h-5.8c-1.4,0-2.6,1-2.8,2.5v-.6c0,0,3.4-21.6,3.4-21.6.1-.9.7-1.6,1.4-1.9.3-.2.7-.3,1.1-.3h15.6c1.8,0,3.6.1,5.1.4.5,0,.9.2,1.3.3.4,0,.8.2,1.2.3.2,0,.4.1.6.2.8.3,1.5.6,2.2.9.8-5.1,0-8.6-2.7-11.8-3-3.5-8.3-5-15.2-5h-19.9c-.2,0-.3,0-.5,0-.2,0-.3,0-.5.1-.9.4-1.6,1.2-1.8,2.3l-8.3,54.1c0,.1,0,.3,0,.4,0,.9.8,1.6,1.7,1.6ZM90,115.6h-3.7c-.4,0-.7.2-.9.5l-5.1,7.8-2.2-7.5c-.1-.5-.6-.8-1-.8h-3.6c-.4,0-.8.4-.6.9l4.1,12.4-3.8,5.6c-.3.4,0,1,.5,1h3.7c.4,0,.7-.2.9-.5l12.3-18.4c.3-.4,0-1-.5-1ZM125.4,115.6h-3.7c-.3,0-.6.2-.6.6l-.2,1.1-.3-.4c-.8-1.2-2.6-1.6-4.4-1.6-4.1,0-7.6,3.2-8.2,7.7-.4,2.2.1,4.4,1.4,5.8,1.1,1.4,2.7,1.9,4.7,1.9,3.3,0,5.1-2.2,5.1-2.2l-.2,1.1c0,.4.2.8.6.8h3.3c.5,0,1-.4,1.1-.9l2-13c0-.4-.2-.8-.6-.8ZM120.2,123c-.4,2.2-2,3.6-4.2,3.6s-1.9-.4-2.5-1c-.5-.7-.8-1.6-.6-2.7.3-2.2,2-3.7,4.1-3.7s1.9.4,2.5,1c.6.7.8,1.6.6,2.7ZM70.4,115.6h-3.7c-.3,0-.6.2-.6.6l-.2,1.1-.3-.4c-.8-1.2-2.6-1.6-4.4-1.6-4.1,0-7.6,3.2-8.2,7.7-.4,2.2.1,4.4,1.4,5.8,1.1,1.4,2.7,1.9,4.7,1.9,3.3,0,5.1-2.2,5.1-2.2l-.2,1.1c0,.4.2.8.6.8h3.3c.5,0,1-.4,1.1-.9l2-13c0-.4-.2-.8-.6-.8ZM65.2,123c-.4,2.2-2,3.6-4.2,3.6s-1.9-.4-2.5-1c-.5-.7-.8-1.6-.6-2.7.3-2.2,2-3.7,4.1-3.7s1.9.4,2.5,1c.6.7.8,1.6.6,2.7ZM133.9,108.3h-3.6c-.3,0-.6.2-.6.6l-3.2,20.7c0,.4.2.8.6.8h3.2c.5,0,1-.4,1.1-.9l3.1-20.4c0-.4-.2-.8-.6-.8Z"/>
</svg>