<?xml version="1.0" encoding="UTF-8"?>
<svg id="Layer_1" xmlns="http://www.w3.org/2000/svg" version="1.1" viewBox="0 0 100 100">
  <!-- Generator: Adobe Illustrator 29.3.1, SVG Export Plug-In . SVG Version: 2.1.0 Build 151)  -->
  <defs>
    <style>
      .st0 {
        fill: #fff;
      }
    </style>
  </defs>
  <path class="st0" d="M66,30.8c-.2,0-.5-.1-.6-.3l-4.5-4.2h0l-2,.6c-1.4-3.2-3.6-5.1-6.4-4.9-1.4-2-3.2-2.3-4.2-2.3h0c-4.6,0-10.6,6.4-11.4,14.1l-7.4,2.3-4.8,37.7,33.4,6.5h0l17.1-3.7-4.7-46h-4.6v.2h0ZM48.1,21.6h0c.9,0,1.6.3,2.2.9-2.9,1.1-5.8,4.3-6.2,9.1l-5.5,1.8c.9-6.3,5.9-11.8,9.5-11.8h0ZM49.6,46.7c-2.8-.8-4.9-.8-6.4,0-.9.5-1.6,1.4-1.9,2.7-.3,1.2,0,2.5,1.2,3.2,5.8,4,7.9,8.8,5.8,13.4-1,2.1-2.8,3.7-5.1,4.4-2.5.8-5.4.6-7.7-.8-.9-.5-1.6-1.1-2.4-1.8l1.1-3.8,2.7,1.4c1.1.6,2.5.5,3.5-.2,1.1-.7,1.8-1.9,1.8-3.2s-.6-2.1-1.5-2.8c-2.5-1.9-7.9-7.2-3.6-13.2,3.6-4.9,8.3-6.5,14.1-4.8-.4,1.2-1.1,3.6-1.7,5.5h.1ZM45.9,31.1c.6-3.9,3.1-6.5,5.5-7.1.6,1.2.9,2.9,1.1,5l-6.7,2.1h.1ZM54.3,28.5c-.2-1.9-.5-3.4-.9-4.6,1.6.3,2.9,1.6,3.9,3.7l-2.9.9h0Z"/>
  <path class="st0" d="M100,100H0V0h100v100ZM.7,99.3h98.5V.7H.7v98.5Z"/>
</svg>