<?xml version="1.0" encoding="UTF-8"?>
<svg id="Layer_1" xmlns="http://www.w3.org/2000/svg" version="1.1" viewBox="0 0 170 180">
  <!-- Generator: Adobe Illustrator 29.3.1, SVG Export Plug-In . SVG Version: 2.1.0 Build 151)  -->
  <defs>
    <style>
      .st0 {
        fill: #fff;
      }
    </style>
  </defs>
  <path class="st0" d="M148.9,0H21.3C9.6,0,0,9.6,0,21.3v137.5c0,11.7,9.5,21.2,21.2,21.2h127.5c11.7,0,21.2-9.5,21.2-21.2V21.3C169.9,9.6,160.4,0,148.8,0h.1ZM168.1,22.5v126.3c0,10.6-8.6,19.2-19.2,19.2H21.3c-10.6,0-19.2-8.6-19.2-19.2V21.3C2.1,10.7,10.7,2.1,21.3,2.1h127.5c10.6,0,19.2,8.6,19.2,19.2v1.1h.1ZM112.4,52.2c-.4,0-.8-.2-1.1-.5l-7.7-7.1h0l-3.4,1.1c-2.3-5.5-6.2-8.6-10.9-8.3-2.4-3.4-5.4-3.9-7.1-3.9h0c-7.9,0-18,10.9-19.3,24l-12.5,3.9-8.2,64.1,56.7,11h.2l29.1-6.3-8-78.1h-7.8ZM82.1,36.5h0c1.5,0,2.7.5,3.8,1.6-5,1.8-9.8,7.3-10.6,15.5l-9.4,3c1.6-10.7,10-20,16.2-20h0ZM84.6,79.2c-4.8-1.4-8.4-1.4-10.8,0-1.6.9-2.7,2.4-3.3,4.5-.5,2,.2,4.2,2,5.4,9.9,6.8,13.5,15,9.8,22.7-1.7,3.6-4.8,6.3-8.6,7.5-4.3,1.4-9.1,1-13.1-1.3-1.5-.8-2.8-1.8-4-3l1.9-6.4,4.6,2.4c1.9,1,4.2.9,6-.3,1.9-1.2,3-3.2,3-5.5s-1-3.6-2.5-4.8c-4.3-3.3-13.4-12.2-6.1-22.4,6.2-8.3,14.1-11.1,24-8.2-.7,2-1.9,6.1-2.9,9.3h0ZM78.4,52.6c1.1-6.7,5.3-11,9.4-12,1,2.1,1.6,4.9,1.9,8.5l-11.3,3.6h0ZM92.4,48.2c-.3-3.2-.9-5.8-1.6-7.8,2.7.5,5,2.7,6.6,6.2l-5,1.6Z"/>
</svg>