<?xml version="1.0" encoding="UTF-8"?>
<svg id="Layer_1" xmlns="http://www.w3.org/2000/svg" version="1.1" viewBox="0 0 170 180">
  <!-- Generator: Adobe Illustrator 29.3.1, SVG Export Plug-In . SVG Version: 2.1.0 Build 151)  -->
  <defs>
    <style>
      .st0 {
        fill: #fff;
      }
    </style>
  </defs>
  <path class="st0" d="M90.4,54.6h-7.2v21.5h7.2v-21.5ZM110.1,54.6h-7.2v21.5h7.2v-21.5ZM42,52.8v64.4h21.5v17.9l17.9-17.9h14.3l32.3-32.2v-50.1H59.9l-17.9,17.9ZM63.5,42h57.3v39.3l-14.3,14.3h-14.3l-12.5,12.5v-12.5h-16.1v-53.6ZM148.8,0H21.2C9.5,0,0,9.5,0,21.2v137.5c0,11.7,9.5,21.2,21.2,21.2h127.5c11.7,0,21.2-9.5,21.2-21.2V21.2c0-11.7-9.5-21.2-21.2-21.2ZM168,22.4v126.3c0,10.6-8.6,19.2-19.2,19.2H21.2c-10.6,0-19.2-8.6-19.2-19.2V21.2C2,10.6,10.6,2,21.2,2h127.5c10.6,0,19.2,8.6,19.2,19.2v1.1Z"/>
</svg>