<?xml version="1.0" encoding="UTF-8"?>
<svg id="Layer_1" xmlns="http://www.w3.org/2000/svg" version="1.1" viewBox="0 0 100 106">
  <!-- Generator: Adobe Illustrator 29.3.1, SVG Export Plug-In . SVG Version: 2.1.0 Build 151)  -->
  <defs>
    <style>
      .st0 {
        fill: #fff;
      }
    </style>
  </defs>
  <path class="st0" d="M53.2,32.2h-4.2v12.7h4.2v-12.7ZM64.8,32.2h-4.2v12.7h4.2v-12.7ZM24.7,31.1v37.9h12.7v10.5l10.5-10.5h8.4l19-19v-29.5h-40.1l-10.5,10.5h0ZM37.4,24.7h33.7v23.2l-8.4,8.4h-8.4l-7.4,7.4v-7.4h-9.5v-31.6h0Z"/>
  <path class="st0" d="M87.5.2H12.5C5.7.2.2,5.7.2,12.5v81c0,6.8,5.5,12.3,12.3,12.3h75c6.8,0,12.3-5.5,12.3-12.3V12.5c0-6.8-5.5-12.3-12.3-12.3ZM99,87.6c0,6.3-5.2,11.5-11.5,11.5H12.5c-6.3,0-11.5-5.2-11.5-11.5V12.5C1,6.1,6.1,1,12.5,1h75c6.3,0,11.5,5.2,11.5,11.5v75.1Z"/>
</svg>