<?xml version="1.0" encoding="UTF-8"?>
<svg id="Layer_1" xmlns="http://www.w3.org/2000/svg" version="1.1" viewBox="0 0 100 106">
  <!-- Generator: Adobe Illustrator 29.3.1, SVG Export Plug-In . SVG Version: 2.1.0 Build 151)  -->
  <defs>
    <style>
      .st0 {
        fill: #fff;
      }
    </style>
  </defs>
  <path class="st0" d="M50,30.7c-25.2.5-26.8-1.1-26.8,19.4s1.5,18.8,26.8,19.4c25.6-.8,26.8.9,26.8-19.4s-2.4-19-26.8-19.4ZM42.9,60.5v-21l17.3,10.5-17.3,10.5Z"/>
  <path class="st0" d="M87.5.2H12.5C5.7.2.2,5.7.2,12.5v81c0,6.8,5.5,12.3,12.3,12.3h75c6.8,0,12.3-5.5,12.3-12.3V12.5c0-6.8-5.5-12.3-12.3-12.3ZM99,87.6c0,6.3-5.2,11.5-11.5,11.5H12.5c-6.3,0-11.5-5.2-11.5-11.5V12.5C1,6.1,6.1,1,12.5,1h75c6.3,0,11.5,5.2,11.5,11.5v75.1Z"/>
</svg>