<?xml version="1.0" encoding="UTF-8"?>
<svg id="Layer_1" xmlns="http://www.w3.org/2000/svg" version="1.1" viewBox="0 0 170 180">
  <!-- Generator: Adobe Illustrator 29.3.1, SVG Export Plug-In . SVG Version: 2.1.0 Build 151)  -->
  <defs>
    <style>
      .st0 {
        fill: #fff;
      }
    </style>
  </defs>
  <path class="st0" d="M148.7.2H21.3C9.5.2,0,9.7,0,21.5v137.5C0,170.7,9.5,180.2,21.3,180.2h127.5c11.7,0,21.2-9.5,21.2-21.2V21.5c0-11.7-9.5-21.2-21.2-21.2ZM168,22.6v126.3c0,10.6-8.6,19.2-19.2,19.2H21.3c-10.6,0-19.2-8.6-19.2-19.2V21.5C2,10.9,10.6,2.2,21.3,2.2h127.5c10.6,0,19.2,8.6,19.2,19.2v1.1ZM85,52.3c-42.8.8-45.5-1.8-45.5,32.9s2.6,31.9,45.5,32.9c43.6-1.3,45.5,1.6,45.5-32.9s-4.1-32.3-45.5-32.9ZM73,102.9v-35.6l29.4,17.8-29.4,17.8Z"/>
</svg>